<svg xmlns="http://www.w3.org/2000/svg" width="56.251" height="56.251" viewBox="0 0 56.251 56.251">
  <g id="Group_40813" data-name="Group 40813" transform="translate(-43 68)">
    <g id="limit_art" transform="translate(44 -67)">
      <circle id="Ellipse_711" data-name="Ellipse 711" cx="27.125" cy="27.125" r="27.125" fill="#fff" stroke="rgba(41,56,151,0.02)" stroke-width="2"/>
    </g>
    <g id="Deposit" transform="translate(57 -55)">
      <path id="Path_31030" data-name="Path 31030" d="M30.552,33.621,25.164,35.8a17.361,17.361,0,0,1-15.092-1.036L9,34.166V26.982c4.382,0,6.136-.3,8.232,1.1.21.144-.227.1,6.735.1a1.8,1.8,0,0,1,1.323,2.993c4.239-1.305,4.095-1.3,4.5-1.3a1.952,1.952,0,0,1,.76,3.748Z" transform="translate(-3.612 -9.614)" fill="#f6ccaf"/>
      <path id="Path_31031" data-name="Path 31031" d="M32.438,32.492l-5.274,2.125a17.361,17.361,0,0,1-15.092-1.036A2.119,2.119,0,0,1,11,31.75V27c3.592,0,3.921-.048,4.789.15,1.724.365,2.125,1.048,2.574,1.048h6.3a1.8,1.8,0,0,1,1.431,2.993l3.843-1.2a1.952,1.952,0,0,1,2.5,2.5Z" transform="translate(-4.415 -9.629)" fill="#ffdec7"/>
      <path id="Path_31032" data-name="Path 31032" d="M1,25H5.789v9.579H1Z" transform="translate(-0.401 -8.829)" fill="#a82af4"/>
      <path id="Path_31033" data-name="Path 31033" d="M30.932,34.042c-1.431.958.186.76-8.333.76a.6.6,0,1,1,0-1.2c6.927,0,7.058.15,7.483-.413a.6.6,0,0,1,.754-.078c-.275.6-.671.6.239.329A.6.6,0,0,1,30.932,34.042Z" transform="translate(-8.829 -12.046)" fill="#f6ccaf"/>
      <path id="Path_31034" data-name="Path 31034" d="M32.977,9.987a5.987,5.987,0,1,1-3.119-5.255A5.987,5.987,0,0,1,32.977,9.987Z" transform="translate(-8.431 -0.401)" fill="#fc6"/>
      <path id="Path_31035" data-name="Path 31035" d="M34.177,9.987a5.939,5.939,0,0,1-.952,3.239,5.987,5.987,0,0,1-8.274-8.274,5.987,5.987,0,0,1,9.225,5.035Z" transform="translate(-9.632 -0.401)" fill="#ffde76"/>
      <path id="Path_31036" data-name="Path 31036" d="M6.592,25c0,8.824-.06,8.381,0,8.381A3.592,3.592,0,0,1,3,29.789V25Z" transform="translate(-1.204 -8.829)" fill="#ae3ef9"/>
      <path id="Path_31037" data-name="Path 31037" d="M4.6,37.2a.6.6,0,1,1,.6-.6A.6.6,0,0,1,4.6,37.2Z" transform="translate(-1.605 -13.244)" fill="#ffde76"/>
      <g id="Group_40555" data-name="Group 40555" transform="translate(16.164 5.395)">
        <path id="Path_31038" data-name="Path 31038" d="M30,8.8V7.6a.6.6,0,1,1,1.2,0V8.8a.6.6,0,1,1-1.2,0Z" transform="translate(-28.204 -7)" fill="#f8834b"/>
        <path id="Path_31039" data-name="Path 31039" d="M30,18.8V17.6a.6.6,0,0,1,1.2,0v1.2a.6.6,0,0,1-1.2,0Z" transform="translate(-28.204 -11.013)" fill="#f8834b"/>
        <path id="Path_31040" data-name="Path 31040" d="M29.993,14.987H27.6a.6.6,0,1,1,0-1.2h2.395a.6.6,0,1,0,0-1.2H28.8A1.8,1.8,0,1,1,28.8,9h2.395a.6.6,0,1,1,0,1.2H28.8a.6.6,0,1,0,0,1.2h1.2a1.8,1.8,0,1,1,0,3.592Z" transform="translate(-27 -7.803)" fill="#f8834b"/>
      </g>
      <path id="Path_31041" data-name="Path 31041" d="M28.6,29.837a2.562,2.562,0,0,0-3.263-1.6l-2.592.808a2.395,2.395,0,0,0-2.395-2.652H13.949c-2.275-1.521-4.191-1.2-7.962-1.2v-.6a.6.6,0,0,0-.6-.6H.6a.6.6,0,0,0-.6.6v9.579a.6.6,0,0,0,.6.6H5.388a.6.6,0,0,0,.6-.6c0-.21-.054-.2.174-.066A17.852,17.852,0,0,0,21.8,35.171l5.388-2.185A2.562,2.562,0,0,0,28.6,29.837ZM4.789,33.579H1.2V25.2H4.789Zm21.953-1.7-5.388,2.179a16.631,16.631,0,0,1-14.6-.988l-.772-.437V26.395c3.945,0,5.418-.257,7.3.994.419.281.162.2,7.07.2a1.2,1.2,0,0,1,.916,1.964c-.671.6-.09.431-7.5.431a.6.6,0,1,0,0,1.2c6.747,0,7.3.222,8.232-.659l3.742-1.137a1.353,1.353,0,0,1,1.018,2.5Z" transform="translate(0 -8.428)"/>
      <path id="Path_31042" data-name="Path 31042" d="M4.174,36.171a.6.6,0,1,0,.425-.177A.6.6,0,0,0,4.174,36.171Z" transform="translate(-1.605 -13.242)"/>
      <path id="Path_31043" data-name="Path 31043" d="M29.993,12.987H27.6a.6.6,0,1,0,0,1.2h1.2v.6a.6.6,0,1,0,1.2,0v-.6a1.8,1.8,0,1,0,0-3.592H28.8a.6.6,0,1,1,0-1.2h2.395a.6.6,0,1,0,0-1.2h-1.2V7.6a.6.6,0,1,0-1.2,0v.6a1.8,1.8,0,1,0,0,3.592h1.2a.6.6,0,1,1,0,1.2Z" transform="translate(-10.836 -1.605)"/>
      <path id="Path_31044" data-name="Path 31044" d="M26.585,16.171A6.585,6.585,0,1,0,20,9.585,6.585,6.585,0,0,0,26.585,16.171Zm0-11.973A5.388,5.388,0,1,1,21.2,9.585,5.388,5.388,0,0,1,26.585,4.2Z" transform="translate(-8.027 0)"/>
    </g>
  </g>
</svg>
