<svg xmlns="http://www.w3.org/2000/svg" width="56.251" height="56.251" viewBox="0 0 56.251 56.251">
  <g id="Group_40809" data-name="Group 40809" transform="translate(-178 204)">
    <g id="limit_art" transform="translate(179 -203)">
      <circle id="Ellipse_711" data-name="Ellipse 711" cx="27.125" cy="27.125" r="27.125" fill="#fff" stroke="rgba(41,56,151,0.02)" stroke-width="2"/>
    </g>
    <g id="Group_40602" data-name="Group 40602" transform="translate(-51 -3962.363)">
      <path id="Path_30952" data-name="Path 30952" d="M11,41v2.5a1.252,1.252,0,0,0,1.252,1.252H26.029A1.252,1.252,0,0,0,27.281,43.5V41Z" transform="translate(236.626 3755.037)" fill="#374f68"/>
      <path id="Path_30953" data-name="Path 30953" d="M28.4,41v2.5H16.5A2.5,2.5,0,0,1,14,41Z" transform="translate(235.505 3755.037)" fill="#425b72"/>
      <path id="Path_30954" data-name="Path 30954" d="M12.252,1H26.029a1.252,1.252,0,0,1,1.252,1.252v2.5H11v-2.5A1.252,1.252,0,0,1,12.252,1Z" transform="translate(236.626 3769.989)" fill="#374f68"/>
      <path id="Path_30956" data-name="Path 30956" d="M11,7H27.281V28.291H11Z" transform="translate(236.626 3767.746)" fill="#9fdbf3"/>
      <path id="Path_30957" data-name="Path 30957" d="M28.4,7c0,20.777-.063,20.038,0,20.038A14.4,14.4,0,0,1,14,12.636V7Z" transform="translate(235.505 3767.746)" fill="#b2e5fb"/>
      <path id="Path_30967" data-name="Path 30967" d="M23.879,44.252H22.626a.626.626,0,1,1,0-1.252h1.252a.626.626,0,1,1,0,1.252Z" transform="translate(232.514 3754.289)" fill="#edebf2"/>
      <path id="Path_30969" data-name="Path 30969" d="M25.655,0H11.879A1.879,1.879,0,0,0,10,1.879v26.3a1.879,1.879,0,0,0,1.879,1.879H25.655a1.879,1.879,0,0,0,1.879-1.879V1.879A1.879,1.879,0,0,0,25.655,0Zm-14.4,5.01H26.281V25.048H11.252Zm0-3.131a.626.626,0,0,1,.626-.626H25.655a.626.626,0,0,1,.626.626V3.757H11.252Zm15.029,26.3a.626.626,0,0,1-.626.626H11.879a.626.626,0,0,1-.626-.626V26.3H26.281Z" transform="translate(237 3770.363)"/>
      <path id="Path_30972" data-name="Path 30972" d="M22.626,44.252h1.252a.626.626,0,1,0,0-1.252H22.626a.626.626,0,1,0,0,1.252Z" transform="translate(232.514 3754.289)"/>
      <g id="Path_31049" data-name="Path 31049" transform="translate(226.792 3764.131)" fill="#db5669">
        <path d="M 36.61498641967773 39.69472122192383 L 36.4329948425293 39.64927291870117 C 34.29973602294922 39.11645126342773 32.42889404296875 37.94132995605469 31.02271461486816 36.25094985961914 C 29.61655426025391 34.56058120727539 28.80161476135254 32.507080078125 28.66601371765137 30.31247138977051 L 28.25149536132812 23.73936080932617 L 28.21111488342285 23.09917068481445 L 28.83730506896973 22.96002197265625 L 36.45203399658203 21.26786231994629 L 36.6147346496582 21.2317008972168 L 36.77743530273438 21.26786231994629 L 44.39216613769531 22.96002197265625 L 45.01835632324219 23.09917068481445 L 44.97797393798828 23.73936080932617 L 44.56339645385742 30.31341171264648 C 44.42643356323242 32.50687026977539 43.6109733581543 34.55975341796875 42.20519638061523 36.24966049194336 C 40.79940414428711 37.93957138061523 38.92926406860352 39.1151008605957 36.79694366455078 39.64915084838867 L 36.61498641967773 39.69472122192383 Z" stroke="none"/>
        <path d="M 36.61473083496094 22 L 29 23.69216156005859 L 29.41458129882812 30.26622200012207 C 29.67078018188477 34.41262054443359 32.5842399597168 37.91493988037109 36.61473083496094 38.92162322998047 C 40.64371109008789 37.91252899169922 43.5560417175293 34.41157150268555 43.81488037109375 30.26621246337891 L 44.22946166992188 23.69216156005859 L 36.61473083496094 22 M 36.61473083496094 20.46341323852539 L 45.80722808837891 22.50617980957031 L 45.31191253662109 30.36062240600586 C 45.16499328613281 32.71358108520508 44.29006195068359 34.91616058349609 42.78176879882812 36.72929382324219 C 41.27348327636719 38.54243087768555 39.26697158813477 39.80368041992188 36.97916030883789 40.37668228149414 L 36.61523056030273 40.46783447265625 L 36.25125122070312 40.37691116333008 C 33.96229934692383 39.80521392822266 31.95492935180664 38.54434204101562 30.44613265991211 36.7305908203125 C 28.93733978271484 34.91685104370117 28.06293106079102 32.7135009765625 27.91744232177734 30.35873222351074 L 27.4222297668457 22.50617980957031 L 36.61473083496094 20.46341323852539 Z" stroke="none" fill="#000"/>
      </g>
      <path id="Path_31050" data-name="Path 31050" d="M44.691,23.692l-.415,6.574a9.493,9.493,0,0,1-4.9,7.742,9.51,9.51,0,0,1-6.963-8.588L32,23.125,37.076,22Z" transform="translate(226.331 3764.131)" fill="#f26674"/>
      <path id="Path_31055" data-name="Path 31055" d="M35.446,30.937a.85.85,0,0,0-1.2,1.2c2.784,2.775,1.692,2.877,6.278-1.692a.85.85,0,1,0-1.2-1.2l-2.784,2.792Z" transform="translate(226.023 3763.054)"/>
    </g>
  </g>
</svg>
