<svg xmlns="http://www.w3.org/2000/svg" xmlns:xlink="http://www.w3.org/1999/xlink" width="36" height="36" viewBox="0 0 36 36">
  <defs>
    <clipPath id="clip-path">
      <circle id="Ellipse_4" data-name="Ellipse 4" cx="18" cy="18" r="18" fill="#fff"/>
    </clipPath>
  </defs>
  <g id="Mask_Group_1" data-name="Mask Group 1" clip-path="url(#clip-path)">
    <g id="man" transform="translate(6.863 7.143)">
      <path id="Path_2431" data-name="Path 2431" d="M184.418,287.9c-.123-.008-.248-.012-.373-.012h-6.533l1.145,12.819h6.184l.858-.572.858.572h3.4V293.8a5.911,5.911,0,0,0-5.537-5.9Zm0,0" transform="translate(-167.358 -271.424)" fill="#00dd80"/>
      <path id="Path_2432" data-name="Path 2432" d="M5.538,287.9c.123-.008.248-.012.373-.012H11.3V300.71H5.115l-.858-.572-.858.572H0V293.8a5.911,5.911,0,0,1,5.538-5.9Zm0,0" transform="translate(0 -271.424)" fill="#ccfc5c"/>
      <path id="Path_2433" data-name="Path 2433" d="M182.924,287.895h-5.408l1.145,7.959Zm0,0" transform="translate(-167.362 -271.428)" fill="#736e6e"/>
      <path id="Path_2434" data-name="Path 2434" d="M123,287.895h4.263v7.959Zm0,0" transform="translate(-115.961 -271.428)" fill="#b4aaaa"/>
      <path id="Path_2435" data-name="Path 2435" d="M59.414,421.637H61.13v5.169H59.414Zm0,0" transform="translate(-56.016 -397.52)" fill="#00dd80"/>
      <path id="Path_2436" data-name="Path 2436" d="M305.645,421.637h1.716v5.169h-1.716Zm0,0" transform="translate(-288.163 -397.52)" fill="#3f893c"/>
      <path id="Path_2437" data-name="Path 2437" d="M186.748,2.588A2.213,2.213,0,0,0,184.568,0h-5.911l-1.145,8.208,8.467-1.145Zm0,0" transform="translate(-167.358)" fill="#ff9100"/>
      <path id="Path_2438" data-name="Path 2438" d="M57.7,0a2.213,2.213,0,0,0-2.181,2.588l.77,4.474H56.3l7.316,1.145V0Zm0,0" transform="translate(-52.316)" fill="#ffd422"/>
      <path id="Path_2439" data-name="Path 2439" d="M181.491,84.1h-2.834l-1.145,5.65,1.145,7.831h0a7.322,7.322,0,0,0,7.321-7.321V86.35a5.587,5.587,0,0,1-4.487-2.252Zm0,0" transform="translate(-167.358 -79.287)" fill="#ffcdbe"/>
      <path id="Path_2440" data-name="Path 2440" d="M74.024,84.1a5.587,5.587,0,0,1-4.487,2.252h-.005v3.907a7.321,7.321,0,0,0,7.321,7.321V84.1Zm0,0" transform="translate(-65.554 -79.287)" fill="#ffeee5"/>
    </g>
  </g>
</svg>
