<svg xmlns="http://www.w3.org/2000/svg" width="64" height="59.513" viewBox="0 0 64 59.513">
  <g id="exceeded" transform="translate(0 0.001)">
    <path id="Path_1" data-name="Path 1" d="M62.822,45.6,40.212,4.837a9.39,9.39,0,0,0-16.425,0L1.177,45.6A9.394,9.394,0,0,0,9.39,59.512h45.22A9.394,9.394,0,0,0,62.822,45.6Zm0,0" transform="translate(0 0)" fill="#fdbf00"/>
    <path id="Path_2" data-name="Path 2" d="M286.826,54.9a9.326,9.326,0,0,1-8.1,4.613H256V0a9.41,9.41,0,0,1,8.253,4.837L286.977,45.6a9.225,9.225,0,0,1-.151,9.3Zm0,0" transform="translate(-224.16 0)" fill="#ff9f00"/>
    <path id="Path_3" data-name="Path 3" d="M211,86.1v22.267h8.907V86.1Zm0,0" transform="translate(-183.454 -70.809)" fill="#5a5a5a"/>
    <path id="Path_4" data-name="Path 4" d="M215.453,341.1a4.453,4.453,0,1,0,4.453,4.453A4.447,4.447,0,0,0,215.453,341.1Zm0,0" transform="translate(-183.454 -300.689)" fill="#5a5a5a"/>
    <g id="Group_1" data-name="Group 1" transform="translate(31.988 15.236)">
      <path id="Path_5" data-name="Path 5" d="M260.453,345.555A4.447,4.447,0,0,1,256,350.009V341.1A4.447,4.447,0,0,1,260.453,345.555Zm0,0" transform="translate(-256 -315.866)" fill="#444"/>
      <path id="Path_6" data-name="Path 6" d="M256,86.1h4.453v22.267H256Zm0,0" transform="translate(-256 -86.102)" fill="#444"/>
    </g>
  </g>
</svg>
